<svg width="106" height="14" viewBox="0 0 106 14" fill="none" xmlns="http://www.w3.org/2000/svg">
<path d="M4.464 2.41C4.176 2.41 3.918 2.422 3.69 2.446C3.474 2.458 3.282 2.494 3.114 2.554C2.958 2.614 2.838 2.692 2.754 2.788C2.67 2.884 2.622 3.016 2.61 3.184L2.484 4.804H0.9V0.969999H10.782V2.77L3.204 13.444L2.628 12.31H7.128C7.608 12.31 7.998 12.292 8.298 12.256C8.598 12.208 8.82 12.13 8.964 12.022C9.108 11.914 9.186 11.752 9.198 11.536L9.414 9.502H11.016V13.75H0.576V11.878L7.938 1.492L8.442 2.41H4.464ZM14.8022 3.112C14.2622 3.112 13.8302 2.98 13.5062 2.716C13.1822 2.452 13.0202 2.086 13.0202 1.618C13.0202 1.138 13.1822 0.765999 13.5062 0.501999C13.8302 0.237999 14.2622 0.106 14.8022 0.106C15.3542 0.106 15.7922 0.237999 16.1162 0.501999C16.4402 0.765999 16.6022 1.138 16.6022 1.618C16.6022 2.086 16.4402 2.452 16.1162 2.716C15.7922 2.98 15.3542 3.112 14.8022 3.112ZM16.4942 4.372V11.95C16.4942 12.202 16.5842 12.376 16.7642 12.472C16.9562 12.556 17.1962 12.598 17.4842 12.598H17.5022V13.75H12.2462V12.598H12.2642C12.5642 12.598 12.8042 12.556 12.9842 12.472C13.1642 12.376 13.2542 12.202 13.2542 11.95V6.244C13.2542 6.052 13.1822 5.92 13.0382 5.848C12.9062 5.776 12.6902 5.71 12.3902 5.65L12.2462 5.614V4.372H16.4942ZM18.3458 13.75V12.598H18.3638C18.5558 12.598 18.7238 12.58 18.8678 12.544C19.0238 12.496 19.1438 12.424 19.2278 12.328C19.3118 12.232 19.3538 12.1 19.3538 11.932V6.244C19.3538 6.112 19.3238 6.016 19.2638 5.956C19.2038 5.884 19.1078 5.83 18.9758 5.794C18.8438 5.746 18.6818 5.698 18.4898 5.65L18.3458 5.614V4.372H22.3418L22.4138 6.424L22.5938 6.46V12.436C22.5938 12.472 22.6358 12.502 22.7198 12.526C22.8158 12.55 22.9298 12.568 23.0618 12.58C23.1938 12.592 23.3138 12.598 23.4218 12.598H23.4758V13.75H18.3458ZM29.7938 13.75H24.6638V12.598H24.6818C24.8018 12.598 24.9278 12.592 25.0598 12.58C25.1918 12.568 25.3058 12.55 25.4018 12.526C25.4978 12.502 25.5458 12.472 25.5458 12.436V7.27C25.5458 6.982 25.5098 6.748 25.4378 6.568C25.3658 6.376 25.2578 6.238 25.1138 6.154C24.9698 6.058 24.7718 6.01 24.5198 6.01C24.2318 6.01 23.9558 6.088 23.6918 6.244C23.4278 6.4 23.1698 6.64 22.9178 6.964C22.6778 7.276 22.4378 7.672 22.1978 8.152V6.532C22.4498 6.04 22.7498 5.62 23.0978 5.272C23.4458 4.924 23.8478 4.66 24.3038 4.48C24.7598 4.288 25.2458 4.192 25.7618 4.192C26.3858 4.192 26.9198 4.306 27.3638 4.534C27.8198 4.762 28.1678 5.104 28.4078 5.56C28.6598 6.004 28.7858 6.562 28.7858 7.234V11.932C28.7858 12.1 28.8278 12.232 28.9118 12.328C28.9958 12.424 29.1098 12.496 29.2538 12.544C29.3978 12.58 29.5658 12.598 29.7578 12.598H29.7938V13.75ZM30.2193 5.74V4.462H30.3093C30.5853 4.462 30.8253 4.444 31.0293 4.408C31.2333 4.36 31.3893 4.276 31.4973 4.156C31.6053 4.024 31.6593 3.844 31.6593 3.616L33.5853 4.372H37.2753V5.74H30.2193ZM34.7913 10.564C34.7913 11.02 34.8453 11.38 34.9533 11.644C35.0613 11.908 35.2173 12.094 35.4213 12.202C35.6253 12.298 35.8713 12.346 36.1593 12.346C36.4113 12.346 36.6453 12.322 36.8613 12.274C37.0773 12.226 37.2333 12.19 37.3293 12.166V13.624C37.2213 13.672 37.0653 13.72 36.8613 13.768C36.6693 13.816 36.4413 13.852 36.1773 13.876C35.9133 13.912 35.6193 13.93 35.2953 13.93C34.5873 13.93 33.9453 13.834 33.3693 13.642C32.8053 13.45 32.3613 13.114 32.0373 12.634C31.7133 12.154 31.5513 11.5 31.5513 10.672V4.714L31.6593 4.57V1.78H34.7913V10.564ZM42.4391 0.375999V11.95C42.4391 12.202 42.5291 12.376 42.7091 12.472C42.9011 12.556 43.1411 12.598 43.4291 12.598H43.4471V13.75H38.1911V12.598H38.2271C38.5151 12.598 38.7491 12.556 38.9291 12.472C39.1091 12.376 39.1991 12.202 39.1991 11.95V2.248C39.1991 2.128 39.1691 2.032 39.1091 1.96C39.0491 1.888 38.9531 1.828 38.8211 1.78C38.7011 1.732 38.5391 1.69 38.3351 1.654L38.1911 1.618V0.375999H42.4391ZM51.726 4.336V7.144C51.642 7.12 51.528 7.102 51.384 7.09C51.252 7.066 51.114 7.048 50.97 7.036C50.826 7.024 50.682 7.018 50.538 7.018C50.262 7.018 50.004 7.042 49.764 7.09C49.536 7.138 49.32 7.216 49.116 7.324C48.924 7.42 48.744 7.558 48.576 7.738C48.42 7.906 48.27 8.116 48.126 8.368L48.108 7.414C48.324 6.778 48.552 6.22 48.792 5.74C49.032 5.26 49.332 4.888 49.692 4.624C50.052 4.36 50.496 4.228 51.024 4.228C51.192 4.228 51.336 4.24 51.456 4.264C51.576 4.288 51.666 4.312 51.726 4.336ZM44.256 13.75V12.598H44.274C44.562 12.598 44.796 12.556 44.976 12.472C45.168 12.376 45.264 12.196 45.264 11.932V6.244C45.264 6.124 45.234 6.028 45.174 5.956C45.114 5.884 45.018 5.83 44.886 5.794C44.754 5.746 44.592 5.698 44.4 5.65L44.256 5.614V4.372H48.234L48.324 7.252L48.504 7.09V12.274C48.504 12.37 48.57 12.442 48.702 12.49C48.834 12.526 48.99 12.556 49.17 12.58C49.362 12.592 49.536 12.598 49.692 12.598H49.854V13.75H44.256ZM57.3718 13.75V12.472H57.5518C57.7678 12.472 57.9538 12.454 58.1098 12.418C58.2778 12.37 58.4098 12.292 58.5058 12.184C58.6018 12.064 58.6498 11.92 58.6498 11.752V2.896C58.6498 2.716 58.6018 2.584 58.5058 2.5C58.4098 2.404 58.2778 2.338 58.1098 2.302C57.9538 2.266 57.7678 2.248 57.5518 2.248H57.3718V0.969999H63.0058L67.8838 11.032L67.4518 10.798V2.5C67.4518 2.452 67.3918 2.41 67.2718 2.374C67.1518 2.338 66.9958 2.308 66.8038 2.284C66.6238 2.26 66.4438 2.248 66.2638 2.248H66.0298V0.969999H70.2598V2.248H70.0798C69.8758 2.248 69.6898 2.266 69.5218 2.302C69.3538 2.338 69.2218 2.404 69.1258 2.5C69.0298 2.596 68.9818 2.734 68.9818 2.914V13.75H65.6518L59.7118 1.708L60.1798 1.852V12.238C60.1798 12.262 60.2398 12.298 60.3598 12.346C60.4918 12.382 60.6478 12.412 60.8278 12.436C61.0078 12.46 61.1938 12.472 61.3858 12.472H61.6198V13.75H57.3718ZM74.4458 9.106C74.4458 9.658 74.4938 10.144 74.5898 10.564C74.6978 10.984 74.8538 11.332 75.0578 11.608C75.2618 11.884 75.5198 12.094 75.8318 12.238C76.1558 12.37 76.5278 12.436 76.9478 12.436C77.3918 12.436 77.7698 12.358 78.0818 12.202C78.3938 12.046 78.6638 11.842 78.8918 11.59C79.1198 11.326 79.3118 11.062 79.4678 10.798L80.6558 11.626C80.4158 12.082 80.1038 12.49 79.7198 12.85C79.3478 13.198 78.8978 13.468 78.3698 13.66C77.8418 13.852 77.2118 13.948 76.4798 13.948C75.4118 13.948 74.4818 13.756 73.6898 13.372C72.8978 12.988 72.2858 12.436 71.8538 11.716C71.4218 10.984 71.2058 10.114 71.2058 9.106C71.2058 8.11 71.4158 7.246 71.8358 6.514C72.2678 5.782 72.8558 5.212 73.5998 4.804C74.3438 4.396 75.1958 4.192 76.1558 4.192C76.9238 4.192 77.5958 4.306 78.1718 4.534C78.7478 4.762 79.2278 5.104 79.6118 5.56C80.0078 6.004 80.3078 6.568 80.5117 7.252C80.7158 7.924 80.8178 8.716 80.8178 9.628H73.9778V8.314H78.1898L77.7938 8.854C77.7818 8.23 77.7398 7.708 77.6678 7.288C77.6078 6.868 77.5178 6.538 77.3978 6.298C77.2778 6.058 77.1158 5.884 76.9118 5.776C76.7198 5.668 76.4858 5.614 76.2098 5.614C75.9458 5.614 75.7058 5.68 75.4898 5.812C75.2738 5.944 75.0878 6.148 74.9318 6.424C74.7758 6.7 74.6558 7.06 74.5718 7.504C74.4878 7.948 74.4458 8.482 74.4458 9.106ZM89.2787 6.874L88.9007 6.748L90.6647 13.768H93.8327L95.7947 6.37C95.8547 6.166 95.9327 6.01 96.0287 5.902C96.1247 5.782 96.2387 5.698 96.3707 5.65C96.5147 5.59 96.6707 5.56 96.8387 5.56H96.8747V4.372H93.2747V5.542H93.3107C93.5027 5.542 93.6767 5.56 93.8327 5.596C94.0007 5.632 94.1327 5.68 94.2287 5.74C94.3367 5.788 94.3907 5.848 94.3907 5.92L92.6987 12.598L93.2567 12.148L91.2227 4.372H88.5767L86.4167 12.634L86.9567 12.148L85.3907 5.704C85.3907 5.656 85.4447 5.626 85.5527 5.614C85.6607 5.59 85.8047 5.572 85.9847 5.56C86.1647 5.548 86.3507 5.542 86.5427 5.542H86.5787V4.372H81.2327V5.56H81.2867C81.4667 5.56 81.6227 5.584 81.7547 5.632C81.8867 5.668 81.9947 5.734 82.0787 5.83C82.1747 5.914 82.2467 6.046 82.2947 6.226L84.2927 13.768H87.4427L89.2787 6.874ZM103.028 11.446C103.028 11.23 102.968 11.056 102.848 10.924C102.74 10.78 102.584 10.666 102.38 10.582C102.176 10.486 101.942 10.408 101.678 10.348C101.426 10.276 101.15 10.204 100.85 10.132C100.478 10.036 100.1 9.928 99.7162 9.808C99.3442 9.676 98.9962 9.502 98.6722 9.286C98.3602 9.07 98.1082 8.794 97.9162 8.458C97.7362 8.11 97.6462 7.672 97.6462 7.144C97.6462 6.484 97.8142 5.932 98.1502 5.488C98.4982 5.044 98.9842 4.708 99.6082 4.48C100.232 4.252 100.958 4.138 101.786 4.138C102.458 4.138 103.04 4.186 103.532 4.282C104.024 4.378 104.42 4.492 104.72 4.624C105.032 4.744 105.248 4.846 105.368 4.93V6.928H103.1V5.308C103.292 5.296 103.436 5.314 103.532 5.362C103.628 5.41 103.688 5.482 103.712 5.578C103.736 5.662 103.736 5.752 103.712 5.848C103.7 5.944 103.676 6.04 103.64 6.136C103.496 5.992 103.334 5.878 103.154 5.794C102.974 5.698 102.77 5.626 102.542 5.578C102.326 5.53 102.074 5.506 101.786 5.506C101.318 5.506 100.964 5.59 100.724 5.758C100.496 5.926 100.382 6.166 100.382 6.478C100.382 6.682 100.442 6.856 100.562 7C100.682 7.132 100.844 7.246 101.048 7.342C101.264 7.438 101.51 7.522 101.786 7.594C102.062 7.666 102.35 7.738 102.65 7.81C103.034 7.906 103.418 8.02 103.802 8.152C104.198 8.284 104.558 8.458 104.882 8.674C105.218 8.89 105.482 9.166 105.674 9.502C105.866 9.838 105.962 10.252 105.962 10.744C105.962 11.428 105.788 12.01 105.44 12.49C105.104 12.958 104.6 13.318 103.928 13.57C103.256 13.81 102.422 13.93 101.426 13.93C100.766 13.93 100.166 13.882 99.6262 13.786C99.0982 13.69 98.6482 13.57 98.2762 13.426C97.9042 13.282 97.6102 13.15 97.3942 13.03V10.852H99.6982V12.994C99.4702 12.91 99.2962 12.808 99.1762 12.688C99.0562 12.556 98.9782 12.43 98.9422 12.31C98.9062 12.178 98.9062 12.07 98.9422 11.986C98.9902 11.902 99.0622 11.854 99.1582 11.842C99.3382 11.998 99.5362 12.13 99.7522 12.238C99.9802 12.346 100.232 12.43 100.508 12.49C100.784 12.538 101.096 12.562 101.444 12.562C101.78 12.562 102.062 12.526 102.29 12.454C102.53 12.37 102.71 12.244 102.83 12.076C102.962 11.908 103.028 11.698 103.028 11.446Z" fill="#2C332E"/>
</svg>
