<svg width="12" height="17" viewBox="0 0 12 17" fill="none" xmlns="http://www.w3.org/2000/svg">
<path d="M1.33869e-07 2.90176V16.4018C-6.33938e-05 16.4886 0.0224845 16.5739 0.0654246 16.6494C0.108365 16.7249 0.170217 16.7879 0.244892 16.8322C0.319567 16.8765 0.404491 16.9005 0.491305 16.9021C0.578119 16.9036 0.66383 16.8824 0.74 16.8408L6 13.9708L11.26 16.8408C11.3362 16.8824 11.4219 16.9036 11.5087 16.9021C11.5955 16.9005 11.6804 16.8765 11.7551 16.8322C11.8298 16.7879 11.8916 16.7249 11.9346 16.6494C11.9775 16.5739 12.0001 16.4886 12 16.4018V2.90176C12 2.37133 11.7893 1.86262 11.4142 1.48755C11.0391 1.11248 10.5304 0.901764 10 0.901764H2C1.46957 0.901764 0.960859 1.11248 0.585786 1.48755C0.210714 1.86262 1.33869e-07 2.37133 1.33869e-07 2.90176Z" fill="#D9D9D9"/>
</svg>
