<svg width="20" height="27" viewBox="0 0 20 27" fill="none" xmlns="http://www.w3.org/2000/svg">
<path d="M0.25 3.75V25.6875C0.249897 25.8286 0.286537 25.9673 0.356315 26.0899C0.426093 26.2125 0.526602 26.3149 0.647949 26.3869C0.769296 26.4589 0.907298 26.498 1.04837 26.5005C1.18944 26.5029 1.32872 26.4686 1.4525 26.4009L10 21.7371L18.5475 26.4009C18.6713 26.4686 18.8106 26.5029 18.9516 26.5005C19.0927 26.498 19.2307 26.4589 19.3521 26.3869C19.4734 26.3149 19.5739 26.2125 19.6437 26.0899C19.7135 25.9673 19.7501 25.8286 19.75 25.6875V3.75C19.75 2.88805 19.4076 2.0614 18.7981 1.4519C18.1886 0.84241 17.362 0.5 16.5 0.5L3.5 0.5C2.63805 0.5 1.8114 0.84241 1.2019 1.4519C0.59241 2.0614 0.25 2.88805 0.25 3.75Z" fill="#E56584"/>
</svg>
