<svg width="188" height="29" viewBox="0 0 188 29" fill="none" xmlns="http://www.w3.org/2000/svg">
<rect width="188" height="29" fill="#1E1E1E"/>
<g clip-path="url(#clip0_0_1)">
<rect width="1728" height="1117" transform="translate(-85 -41)" fill="white"/>
<rect x="-85" y="-41" width="350" height="1117" fill="#00204E"/>
<g filter="url(#filter0_d_0_1)">
<path d="M168.399 8.81774V20.6521H184V17.4614H172.061V12.0084H182.512V8.81774H168.399ZM150.311 5.65613C150.311 4.97933 150.609 4.40403 151.204 3.93026C151.8 3.45649 152.633 3.21963 153.705 3.21963C154.658 3.21963 155.6 3.39848 156.533 3.75626C157.466 4.114 158.409 4.63124 159.362 5.30804L161.327 2.6105C160.255 1.77899 159.109 1.14572 157.888 0.710629C156.667 0.275539 155.293 0.0579714 153.765 0.0579714C152.732 0.0579714 151.78 0.198186 150.906 0.478569C150.033 0.758996 149.284 1.16025 148.658 1.68235C148.033 2.20444 147.542 2.82806 147.185 3.55318C146.827 4.27835 146.649 5.08567 146.649 5.97519C146.649 6.92268 146.803 7.72519 147.11 8.3827C147.418 9.04011 147.864 9.60088 148.45 10.065C149.036 10.5291 149.76 10.9158 150.623 11.2253C151.487 11.5346 152.474 11.815 153.586 12.0664C154.559 12.2984 155.347 12.5208 155.953 12.7336C156.558 12.9462 157.035 13.1734 157.382 13.4152C157.729 13.6569 157.967 13.9227 158.096 14.2128C158.225 14.5029 158.29 14.8316 158.29 15.199C158.29 15.9919 157.957 16.6203 157.293 17.0844C156.628 17.5485 155.73 17.7805 154.598 17.7805C153.288 17.7805 152.117 17.5533 151.085 17.0989C150.053 16.6445 149.03 15.9919 148.018 15.141L145.815 17.6935C147.066 18.7957 148.425 19.6128 149.894 20.1445C151.363 20.6763 152.901 20.9422 154.509 20.9422C155.6 20.9422 156.603 20.8068 157.516 20.536C158.429 20.2654 159.213 19.8689 159.868 19.3469C160.523 18.8247 161.034 18.1866 161.401 17.4324C161.768 16.6783 161.952 15.8178 161.952 14.8509C161.952 14.0001 161.808 13.2605 161.52 12.632C161.232 12.0035 160.811 11.4524 160.255 10.9787C159.699 10.5049 159 10.1037 158.156 9.77492C157.312 9.44621 156.345 9.14649 155.253 8.87576C154.261 8.64374 153.442 8.42133 152.797 8.20865C152.152 7.99593 151.646 7.76387 151.278 7.51247C150.911 7.26107 150.658 6.99038 150.519 6.70035C150.38 6.41028 150.311 6.06219 150.311 5.65613ZM135.855 0.348047V20.6521H139.517V0.348047H135.855ZM107.614 15.4021L102.642 0.348047H98.6822L105.947 20.7971H109.103L114.224 6.20725L119.345 20.7971H122.5L129.765 0.348047H125.925L120.952 15.4021L115.831 0.290076H112.735L107.614 15.4021ZM183.851 0.348047H168.399V3.53869H183.851V0.348047Z" fill="#1161D6"/>
<path d="M57.4447 5.65613C57.4447 4.97933 57.7423 4.40403 58.3377 3.93026C58.9332 3.45649 59.7667 3.21963 60.8387 3.21963C61.7912 3.21963 62.7344 3.39848 63.6669 3.75626C64.5999 4.114 65.5427 4.63124 66.4956 5.30804L68.4606 2.6105C67.3886 1.77899 66.2425 1.14572 65.0218 0.710629C63.8011 0.275539 62.4267 0.0579712 60.8982 0.0579712C59.8662 0.0579712 58.9133 0.198186 58.0402 0.478569C57.1668 0.758996 56.4176 1.16025 55.7924 1.68235C55.1671 2.20444 54.6756 2.82806 54.3185 3.55318C53.9611 4.27835 53.7826 5.08567 53.7826 5.97519C53.7826 6.92268 53.9362 7.72519 54.2439 8.3827C54.5517 9.04011 54.9984 9.60088 55.5837 10.065C56.1694 10.5291 56.8937 10.9158 57.7574 11.2253C58.6206 11.5346 59.6082 11.815 60.7197 12.0664C61.6922 12.2984 62.4813 12.5208 63.0866 12.7336C63.6918 12.9462 64.1683 13.1734 64.5156 13.4152C64.8628 13.6569 65.1013 13.9227 65.23 14.2128C65.3593 14.5029 65.4237 14.8316 65.4237 15.199C65.4237 15.9919 65.0911 16.6203 64.4263 17.0844C63.7615 17.5485 62.8632 17.7805 61.7317 17.7805C60.4217 17.7805 59.2507 17.5533 58.2187 17.0989C57.1867 16.6445 56.1645 15.9919 55.152 15.141L52.949 17.6935C54.1995 18.7957 55.5588 19.6128 57.0278 20.1445C58.4967 20.6763 60.035 20.9422 61.6425 20.9422C62.7344 20.9422 63.7367 20.8068 64.6497 20.536C65.5627 20.2654 66.3469 19.8689 67.0019 19.3469C67.6568 18.8247 68.168 18.1866 68.5348 17.4324C68.902 16.6783 69.0858 15.8178 69.0858 14.8509C69.0858 14.0001 68.942 13.2605 68.6542 12.632C68.366 12.0035 67.9446 11.4524 67.3886 10.9787C66.8331 10.5049 66.1333 10.1037 65.2896 9.77492C64.4463 9.44621 63.4787 9.14649 62.3867 8.87576C61.3942 8.64374 60.5758 8.42133 59.9306 8.20865C59.2854 7.99593 58.7796 7.76387 58.4124 7.51247C58.0451 7.26107 57.792 6.99038 57.653 6.70035C57.514 6.41028 57.4447 6.06219 57.4447 5.65613ZM45.1025 20.6521H48.9729L39.803 0.203031H36.4089L27.2389 20.6521H30.9902C34.5726 12.4602 34.2577 13.0793 38.0464 4.46689C41.8243 12.984 41.5969 12.5227 45.1025 20.6521ZM23.0545 17.4035L20.7025 15.083C19.8093 15.8952 18.9062 16.5381 17.9932 17.0119C17.0801 17.4856 15.9885 17.7225 14.7182 17.7225C13.7258 17.7225 12.8078 17.534 11.9642 17.1569C11.1206 16.7798 10.3912 16.2626 9.77588 15.6051C9.16059 14.9476 8.68424 14.1789 8.3468 13.2991C8.00939 12.4193 7.84068 11.4766 7.84068 10.4711C7.84068 9.46555 8.00939 8.52771 8.3468 7.65753C8.68424 6.78735 9.16059 6.02836 9.77588 5.38054C10.3912 4.73273 11.1206 4.22029 11.9642 3.84321C12.8078 3.46618 13.7258 3.27765 14.7182 3.27765C15.9091 3.27765 16.971 3.50966 17.9039 3.97378C18.8367 4.43786 19.72 5.04703 20.5536 5.80114L22.9057 3.16162C22.4095 2.69754 21.8835 2.2721 21.3277 1.88538C20.7719 1.49865 20.1666 1.16506 19.5116 0.884674C18.8566 0.60429 18.1371 0.386724 17.3531 0.232018C16.569 0.0773115 15.7007 0 14.7479 0C13.16 0 11.7112 0.275539 10.4011 0.826658C9.09114 1.37773 7.95976 2.13193 7.00705 3.08911C6.05431 4.04629 5.31498 5.16302 4.78896 6.4393C4.26299 7.7155 4 9.07879 4 10.5291C4 11.9987 4.26793 13.3717 4.80387 14.6479C5.33979 15.9242 6.07912 17.0312 7.02194 17.969C7.96472 18.9069 9.08119 19.6466 10.3714 20.188C11.6615 20.7294 13.0707 21.0002 14.5991 21.0002C15.5717 21.0002 16.4599 20.918 17.2637 20.7536C18.0676 20.5893 18.807 20.3475 19.4818 20.0285C20.1566 19.7094 20.7869 19.3323 21.3724 18.8973C21.9579 18.4622 22.5186 17.9642 23.0545 17.4035ZM89.1388 12.0954V20.6521H92.801V0.348047H89.1388V8.78871H79.1949V0.348047H75.5328V20.6521H79.1949V12.0954H89.1388Z" fill="white"/>
<path fill-rule="evenodd" clip-rule="evenodd" d="M38.0924 13.2729L34.8463 20.6521H41.3656L38.0924 13.2729Z" fill="#1161D6"/>
</g>
</g>
<defs>
<filter id="filter0_d_0_1" x="0" y="0" width="188" height="29.0002" filterUnits="userSpaceOnUse" color-interpolation-filters="sRGB">
<feFlood flood-opacity="0" result="BackgroundImageFix"/>
<feColorMatrix in="SourceAlpha" type="matrix" values="0 0 0 0 0 0 0 0 0 0 0 0 0 0 0 0 0 0 127 0" result="hardAlpha"/>
<feOffset dy="4"/>
<feGaussianBlur stdDeviation="2"/>
<feComposite in2="hardAlpha" operator="out"/>
<feColorMatrix type="matrix" values="0 0 0 0 0 0 0 0 0 0 0 0 0 0 0 0 0 0 0.25 0"/>
<feBlend mode="normal" in2="BackgroundImageFix" result="effect1_dropShadow_0_1"/>
<feBlend mode="normal" in="SourceGraphic" in2="effect1_dropShadow_0_1" result="shape"/>
</filter>
<clipPath id="clip0_0_1">
<rect width="1728" height="1117" fill="white" transform="translate(-85 -41)"/>
</clipPath>
</defs>
</svg>
